[Header]
FileType HTR
DataType HTRS
FileVersion 1
NumSegments 22
NumFrames 5
DataFrameRate 24
EulerRotationOrder ZYX
CalibrationUnits mm
RotationUnits Degrees
GlobalAxisofGravity Y
BoneLengthAxis Y
ScaleFactor 1.0
[SegmentNames&Hierarchy]
reference	GLOBAL
Hips	reference
Spine	Hips
Spine1	Spine
Neck	Spine1
Head	Neck
LeftShoulder	Spine1
LeftArm	LeftShoulder
LeftForeArm	LeftArm
LeftHand	LeftForeArm
RightShoulder	Spine1
RightArm	RightShoulder
RightForeArm	RightArm
RightHand	RightForeArm
LeftUpLeg	Hips
LeftLeg	LeftUpLeg
LeftFoot	LeftLeg
LeftToeBase	LeftFoot
RightUpLeg	Hips
RightLeg	RightUpLeg
RightFoot	RightLeg
RightToeBase	RightFoot
[BasePosition]
reference	0	0	0	0	0	0	1
Hips	0	0	0	0	0	0	1
Spine	0	0	0	0	-0	90	1
Spine1	0	0	0	0	0	0	1
Neck	0	0	0	-7.352430803	-7.352430803	90	1
Head	0	0	0	0	-0	90	1
LeftShoulder	0	0	0	0	0	0	1
LeftArm	0	0	0	0	0	0	1
LeftForeArm	0	0	0	0	0	0	1
LeftHand	0	0	0	0	0	0	1
RightShoulder	0	0	0	0	-0	180	1
RightArm	0	0	0	0	-0	180	1
RightForeArm	0	0	0	0	-0	180	1
RightHand	0	0	0	0	-0	180	1
LeftUpLeg	0	0	0	0	-0	-90	1
LeftLeg	0	0	0	0	-0	-90	1
LeftFoot	0	0	0	66.57150701	-66.57150701	-90	1
LeftToeBase	0	0	0	0	-90	0	1
RightUpLeg	0	0	0	0	-0	-90	1
RightLeg	0	0	0	0	-0	-90	1
RightFoot	0	0	0	66.57150701	-66.57150701	-90	1
RightToeBase	0	0	0	0	-90	0	1
[reference]
46	0	0	0	0	-0	0	1.0
47	0	0	0	0	-0	0	1.0
48	0	0	0	0	-0	0	1.0
49	0	0	0	0	-0	0	1.0
50	0	0	0	0	-0	0	1.0
[Hips]
46	1.292783618	8.75560379	0.3194365501	-50.39707947	-98.23167419	42.88652802	1.0
47	1.255870104	8.835690498	0.3274881542	-53.61901474	-98.04756165	51.35089874	1.0
48	1.177164197	8.856026649	0.3344933689	-53.75653458	-97.8061676	55.18892288	1.0
49	1.060389996	8.869428635	0.3405656815	-51.68374634	-97.20459747	56.25764465	1.0
50	0.9168690443	8.881487846	0.3458184004	-50.99881744	-96.14015961	58.48129654	1.0
[Spine]
46	0	0.7478299737	0	-0.9626449347	-1.329943061	-89.54811859	1.0
47	0	0.7478299737	0	-2.957183123	-1.848209381	-88.43238831	1.0
48	0	0.7478299737	0	-4.393820763	-1.947640896	-88.58473206	1.0
49	0	0.7478299737	0	-6.317529202	-1.955308914	-89.40044403	1.0
50	0	0.7478299737	0	-8.26483345	-2.141378164	-90.26430511	1.0
[Spine1]
46	0	2.049309969	0	14.03690147	-0.1266641915	-2.643460274	1.0
47	0	2.049309969	0	9.654694557	-0.3910700381	-2.769527435	1.0
48	0	2.049309969	0	6.369173527	-0.5496112108	-2.161576509	1.0
49	0	2.049309969	0	4.493752956	-0.5915749669	-1.754147172	1.0
50	0	2.049309969	0	3.15736866	-0.6584823728	-1.669326663	1.0
[Neck]
46	0	2.231709957	0	2.426604748	4.323395729	-82.65238953	1.0
47	0	2.231709957	0	2.735570431	4.197181225	-83.77185059	1.0
48	0	2.231709957	0	3.168107986	2.701555729	-85.07902527	1.0
49	0	2.231709957	0	6.21424818	0.09658100456	-84.94472504	1.0
50	0	2.231709957	0	8.831924438	-0.7793943882	-84.71411133	1.0
[Head]
46	0	1.413589954	0.1823999882	-17.27831078	-2.368067741	-89.31581116	1.0
47	0	1.413589954	0.1823999882	-16.82321358	-2.759481907	-88.57408142	1.0
48	0	1.413589954	0.1823999882	-16.22866631	-1.841870546	-87.365242	1.0
49	0	1.413589954	0.1823999882	-20.64777184	0.001650690916	-88.38626862	1.0
50	0	1.413589954	0.1823999882	-26.09011841	0.1737861037	-88.74147034	1.0
[LeftShoulder]
46	0.3649300039	1.825889945	-0.04271000251	-6.994537354	-8.870404243	1.070067286	1.0
47	0.3649300039	1.825889945	-0.04271000251	-8.415189743	-9.562095642	0.2214044333	1.0
48	0.3649300039	1.825889945	-0.04271000251	-10.19847393	-10.21684647	0.1484172046	1.0
49	0.3649300039	1.825889945	-0.04271000251	-10.94070339	-12.0071106	0.8277350664	1.0
50	0.3649300039	1.825889945	-0.04271000251	-12.1846323	-13.0421505	1.787836671	1.0
[LeftArm]
46	1.24003005	0	0	10.97775269	10.81815243	-75.74946594	1.0
47	1.24003005	0	0	20.74598885	5.406360149	-71.98085785	1.0
48	1.24003005	0	0	26.82844353	0.3416674137	-68.68405151	1.0
49	1.24003005	0	0	29.21765709	-4.668032646	-65.73999023	1.0
50	1.24003005	0	0	32.28552628	-8.925719261	-63.61369324	1.0
[LeftForeArm]
46	2.847419977	0	0	-8.245599747	-13.62545013	-8.71691227	1.0
47	2.847419977	0	0	-12.16659641	-17.59655762	-2.412741899	1.0
48	2.847419977	0	0	-15.13734245	-20.40740585	2.898569584	1.0
49	2.847419977	0	0	-17.85317421	-22.86354256	7.446760654	1.0
50	2.847419977	0	0	-20.79198074	-24.50444031	12.32519817	1.0
[LeftHand]
46	2.258270025	0	0	-9.407342911	-7.135774612	1.905228853	1.0
47	2.258270025	0	0	-12.6953249	-7.669700146	2.326254606	1.0
48	2.258270025	0	0	-14.83208656	-8.378394127	2.964946747	1.0
49	2.258270025	0	0	-16.54076576	-8.600550652	2.607681036	1.0
50	2.258270025	0	0	-18.34549141	-8.970070839	3.065268993	1.0
[RightShoulder]
46	-0.3646599948	1.825889945	-0.04271000251	-4.041243553	7.176018715	180.0334625	1.0
47	-0.3646599948	1.825889945	-0.04271000251	-5.489704609	7.897321701	180.4794922	1.0
48	-0.3646599948	1.825889945	-0.04271000251	-6.856044292	8.950829506	180.7045898	1.0
49	-0.3646599948	1.825889945	-0.04271000251	-7.79526186	9.515082359	180.8350983	1.0
50	-0.3646599948	1.825889945	-0.04271000251	-8.489453316	9.749464035	180.3834229	1.0
[RightArm]
46	-1.24003005	0	0	14.13419628	-8.366501808	-108.3741302	1.0
47	-1.24003005	0	0	18.99647141	-3.633421898	-111.0446472	1.0
48	-1.24003005	0	0	23.74411201	0.599748075	-113.0775604	1.0
49	-1.24003005	0	0	28.3276825	5.303538799	-114.8016052	1.0
50	-1.24003005	0	0	33.00127029	9.064935684	-115.2638397	1.0
[RightForeArm]
46	-2.847419977	0	0	7.441675186	14.07794189	185.1229858	1.0
47	-2.847419977	0	0	4.106784344	18.27880669	180.0545502	1.0
48	-2.847419977	0	0	-0.2796912491	21.561306	173.8029785	1.0
49	-2.847419977	0	0	-4.026205063	23.73301697	168.3276367	1.0
50	-2.847419977	0	0	-7.103539467	25.16574669	161.9107666	1.0
[RightHand]
46	-2.258270025	0	0	6.301301479	10.45766926	174.479248	1.0
47	-2.258270025	0	0	3.393236637	10.21258926	172.0951538	1.0
48	-2.258270025	0	0	0.04118102789	10.4773159	170.5924988	1.0
49	-2.258270025	0	0	-2.45553875	9.85038662	169.7006531	1.0
50	-2.258270025	0	0	-4.049108028	10.00924587	168.4836731	1.0
[LeftUpLeg]
46	0.9119900465	0	0	-0.4802492559	12.71521759	90.16383362	1.0
47	0.9119900465	0	0	-3.341633081	12.42557526	89.97828674	1.0
48	0.9119900465	0	0	-4.926425934	10.04732513	90.2637558	1.0
49	0.9119900465	0	0	-5.629034996	7.467548847	90.1108551	1.0
50	0.9119900465	0	0	-5.868563652	8.996042252	89.1288147	1.0
[LeftLeg]
46	0	-4.371409893	0	27.46427727	-2.05079484	87.57182312	1.0
47	0	-4.371409893	0	23.0309906	-1.616887808	87.66436768	1.0
48	0	-4.371409893	0	19.72543907	-1.20149374	86.93943787	1.0
49	0	-4.371409893	0	16.52455139	-0.4955041111	86.03754425	1.0
50	0	-4.371409893	0	13.12391376	-1.204546094	85.98620605	1.0
[LeftFoot]
46	0	-3.918009996	0	-110.9832687	112.7357025	-62.95037079	1.0
47	0	-3.918009996	0	-114.1394196	111.656517	-68.92917633	1.0
48	0	-3.918009996	0	-114.3230896	110.6096268	-70.4318924	1.0
49	0	-3.918009996	0	-111.8124008	110.2404251	-67.71238708	1.0
50	0	-3.918009996	0	-114.1223755	110.3013535	-70.7800293	1.0
[LeftToeBase]
46	0	-0.5927900076	1.367989898	0	0	0	1.0
47	0	-0.5927900076	1.367989898	0	0	0	1.0
48	0	-0.5927900076	1.367989898	0	0	0	1.0
49	0	-0.5927900076	1.367989898	0	0	0	1.0
50	0	-0.5927900076	1.367989898	0	0	0	1.0
[RightUpLeg]
46	-0.9119900465	0	0	-73.77310944	-2.431445837	112.5782852	1.0
47	-0.9119900465	0	0	-64.82704163	-5.032754898	113.1008377	1.0
48	-0.9119900465	0	0	-54.61959839	-5.623085976	112.2494812	1.0
49	-0.9119900465	0	0	-43.85082626	-5.883895874	110.4437332	1.0
50	-0.9119900465	0	0	-33.94443512	-5.490473747	108.0788574	1.0
[RightLeg]
46	0	-4.371409893	0	104.7582397	18.08224678	79.78220367	1.0
47	0	-4.371409893	0	89.20839691	16.60202789	74.19703674	1.0
48	0	-4.371409893	0	72.92033386	12.31846142	71.20895386	1.0
49	0	-4.371409893	0	54.55839157	6.734109879	72.1776123	1.0
50	0	-4.371409893	0	34.11998367	1.253442287	76.30130768	1.0
[RightFoot]
46	0	-3.918009996	0	72.62207794	60.53063202	98.99239349	1.0
47	0	-3.918009996	0	77.05678558	59.01194382	103.5520782	1.0
48	0	-3.918009996	0	79.7512207	56.98544693	106.0326614	1.0
49	0	-3.918009996	0	82.8919754	52.67556	110.8740463	1.0
50	0	-3.918009996	0	86.43069458	49.08102417	114.2824554	1.0
[RightToeBase]
46	0	-0.5927900076	1.367989898	0	0	0	1.0
47	0	-0.5927900076	1.367989898	0	0	0	1.0
48	0	-0.5927900076	1.367989898	0	0	0	1.0
49	0	-0.5927900076	1.367989898	0	0	0	1.0
50	0	-0.5927900076	1.367989898	0	0	0	1.0
[EndOfFile]
